<?xml version="1.0" encoding="utf-8"?>
<!-- Generator: Adobe Illustrator 23.0.3, SVG Export Plug-In . SVG Version: 6.00 Build 0)  -->
<svg version="1.1" id="Layer_1" xmlns="http://www.w3.org/2000/svg" xmlns:xlink="http://www.w3.org/1999/xlink" x="0px" y="0px"
	 viewBox="0 0 24 24" style="enable-background:new 0 0 24 24;" xml:space="preserve">
<style type="text/css">
	.st0{fill:#EF473A;}
</style>
<title>radio_button_checked</title>
<path class="st0" d="M12,20c2.2,0,4.1-0.8,5.6-2.4c1.6-1.6,2.4-3.5,2.4-5.6s-0.8-4.1-2.4-5.6S14.2,4,12,4C9.8,4,7.9,4.8,6.4,6.4
	S4,9.8,4,12c0,2.2,0.8,4.1,2.4,5.6S9.8,20,12,20z M12,2c2.8,0,5.1,1,7.1,2.9S22,9.3,22,12s-1,5.1-2.9,7.1S14.8,22,12,22
	s-5.1-1-7.1-2.9S2,14.8,2,12c0-2.8,1-5.1,2.9-7.1S9.3,2,12,2z M12,7c1.4,0,2.6,0.5,3.5,1.5c1,1,1.5,2.2,1.5,3.5s-0.5,2.6-1.5,3.5
	S13.4,17,12,17s-2.6-0.5-3.5-1.5S7,13.4,7,12c0-1.4,0.5-2.6,1.5-3.5S10.6,7,12,7z"/>
</svg>
